<svg width="41" height="49" fill="none" xmlns="http://www.w3.org/2000/svg"><path fill-rule="evenodd" clip-rule="evenodd" d="M30.117 43.055a16.753 16.753 0 0 0 2.283-1.727c5.837-5.324 7.212-14.815 2.464-21.587-2.101-3.043-5.24-5.321-8.82-6.5l.882-2.996c5.422 1.78 10.092 5.704 12.427 10.897 3.71 8.21 1.063 18.782-7.03 24.287-5.579 3.797-13.18 4.66-19.562 2.135C6.223 44.974 1.294 38.941.231 32.15c-1.09-6.813 1.737-14.11 7.419-18.552 2.49-1.944 5.448-3.289 8.561-3.945L14.24 13.56C8.92 15.662 4.588 20.307 3.498 26.146 2.487 31.59 4.485 37.445 8.61 41.26c.7.659 1.479 1.247 2.283 1.763 2.127-.654 5.604-1.836 9.573-1.836 4.021 0 7.55 1.194 9.651 1.868zm2.983-9.48v2.776a1.539 1.539 0 0 0-.026.246c-.078.433-.466.963-.466.963-.26.29-.416.373-.597.46-.312.149-.83.21-.83.21-7.057.842-14.243.875-21.274.012 0 0-1.063-.11-1.556-.714 0 0-.442-.639-.468-1.127v-2.827H6.38v-5.987h1.504v-3.5c0-.046.053-.737.468-1.213 0 0 .674-.674 1.478-.701 3.632-.046 7.316-.357 11.026-.355 3.424.008 6.875.12 10.3.355.44.005.882.166 1.219.44l.285.294c.285.372.415.99.415.996a.296.296 0 0 1 .026.148v3.536h1.816v5.988H33.1zm-12.92-9.62c-3.294.013-6.615.126-9.91.33l-.181.013v11.814c6.849.845 13.853.825 20.702.01l.104-.01V24.295c-.181-.01-.337-.023-.519-.033a156.833 156.833 0 0 0-10.195-.306zm-5.058 6.41h-1.22v-3.107h3.217v1.42l-.052-.002c-1.011 0-1.841.742-1.945 1.69zm9.547 0h-.882v-3.107h3.19v1.453a1.772 1.772 0 0 0-.362-.035c-1.012 0-1.842.742-1.946 1.69zm-.805-12.301a26.398 26.398 0 0 0-6.486 0v3c2.128-.101 4.281-.114 6.486 0v-3zm-5.863-1.006l2.543-4.685c-1.816.03-3.088.203-4.489.576L22.36 0l-1.582 9.224c1.582-.126 3.32.093 4.825.553l-2.335 7.28a29.24 29.24 0 0 0-5.267 0z"/></svg>