<svg width="171" height="49" fill="none" xmlns="http://www.w3.org/2000/svg"><path d="M62.433 38.86c0-1.608-.648-2.568-1.344-3.144-.684-.588-1.752-.996-3.192-.996h-2.808V43h2.808c1.44 0 2.508-.408 3.192-.984.696-.588 1.344-1.548 1.344-3.156zm-1.968 0c0 1.02-.384 1.572-.732 1.896-.348.336-.924.6-1.728.6h-.984v-5.028h.984c.804 0 1.38.264 1.728.588.348.336.732.924.732 1.944zm12.625.012c0-2.676-1.932-4.284-4.392-4.284-2.46 0-4.392 1.608-4.392 4.284 0 2.676 1.932 4.272 4.392 4.272 2.46 0 4.392-1.596 4.392-4.272zm-1.968-.048c0 1.584-1.044 2.592-2.424 2.592s-2.424-1.008-2.424-2.592 1.044-2.58 2.424-2.58 2.424 1.008 2.424 2.58zm10.525 1.68c-.456.468-1.2.876-2.232.876-1.356 0-2.484-.924-2.484-2.544s1.08-2.556 2.484-2.556c1.092 0 1.98.66 2.136.864l.6-1.608c-.216-.228-1.14-.936-2.844-.936-2.412 0-4.344 1.596-4.344 4.272 0 2.664 1.908 4.272 4.344 4.272 1.692 0 2.568-.696 2.988-1.128l-.648-1.512zm9.617-5.784h-1.956v4.824c0 .588-.048 1.044-.324 1.38-.264.312-.648.516-1.188.516-.54 0-.924-.204-1.188-.516-.276-.336-.324-.792-.324-1.38V34.72h-1.956v4.824c0 1.164.204 1.968.78 2.604.588.624 1.476.984 2.688.984 1.2 0 2.1-.36 2.676-.984.588-.636.792-1.44.792-2.604V34.72zm11.332 0h-2.46l-1.704 5.448h-.024L96.68 34.72h-2.448L93.608 43h1.908l.3-5.64h.036L97.64 43h1.536l1.776-5.64h.024L101.3 43h1.908l-.612-8.28zm8.484 6.708h-3.54v-1.92h3.24V37.96h-3.24v-1.692h3.432V34.72h-5.364V43h5.472v-1.572zm9.884-6.708h-1.896v3.756c0 .876.036 1.812.036 1.812l-3.552-5.568h-2.076V43h1.896v-3.744c0-.876-.036-1.872-.036-1.872L118.972 43h1.992v-8.28zm8.22 0h-6.216v1.536h2.136V43h1.944v-6.744h2.136V34.72zm5.263-.012h-2.016L129.311 43h2.016l.588-1.668h2.952l.588 1.668h2.112l-3.12-8.292zm-2.088 5.112l1.032-2.976 1.032 2.976h-2.064zm11.542-5.1h-6.216v1.536h2.136V43h1.944v-6.744h2.136V34.72zm3.952 0h-1.944V43h1.944v-8.28zm11.077 4.152c0-2.676-1.932-4.284-4.392-4.284-2.46 0-4.392 1.608-4.392 4.284 0 2.676 1.932 4.272 4.392 4.272 2.46 0 4.392-1.596 4.392-4.272zm-1.968-.048c0 1.584-1.044 2.592-2.424 2.592s-2.424-1.008-2.424-2.592 1.044-2.58 2.424-2.58 2.424 1.008 2.424 2.58zm11.749-4.104h-1.896v3.756c0 .876.036 1.812.036 1.812l-3.552-5.568h-2.076V43h1.896v-3.744c0-.876-.036-1.872-.036-1.872L166.719 43h1.992v-8.28z" fill="#4965F6"/><path d="M57.688 20.72h-1.932v8.136c0 .6-.132.96-.6.96-.264 0-.492-.048-.648-.108l-.072 1.428c.108.06.66.18 1.236.18.672 0 1.188-.252 1.5-.612.336-.384.516-.996.516-1.872V20.72zm9.59 0H65.32v4.824c0 .588-.048 1.044-.324 1.38-.264.312-.648.516-1.188.516-.54 0-.924-.204-1.188-.516-.276-.336-.324-.792-.324-1.38V20.72h-1.956v4.824c0 1.164.204 1.968.78 2.604.588.624 1.476.984 2.688.984 1.2 0 2.1-.36 2.676-.984.588-.636.792-1.44.792-2.604V20.72zm11.331 0h-2.46l-1.704 5.448h-.024l-1.728-5.448h-2.448L69.621 29h1.908l.3-5.64h.036L73.653 29h1.536l1.776-5.64h.024l.324 5.64h1.908l-.612-8.28zm9 2.604c0-.888-.311-1.524-.863-1.98-.552-.456-1.308-.624-2.16-.624h-2.964V29h1.944v-3.06h1.02c.852 0 1.608-.168 2.16-.624.552-.468.864-1.104.864-1.992zm-1.967 0c0 .42-.168.72-.396.888-.24.168-.516.228-.936.228h-.756v-2.22h.756c.42 0 .696.06.936.228.228.168.396.456.396.876zm9.71 3.156c0-.744-.3-1.248-.649-1.596-.372-.372-.924-.588-1.152-.672-.264-.108-.876-.324-1.236-.468-.372-.144-.84-.336-.84-.84s.456-.744 1.08-.744c.624 0 1.368.36 1.848.84l.828-1.356c-.564-.564-1.668-1.02-2.628-1.02-.96 0-1.716.264-2.184.66a2.332 2.332 0 0 0-.864 1.812c0 .78.288 1.26.648 1.596.36.348.78.504.984.6.276.12.9.336 1.26.468s.972.348.972.912c0 .552-.48.852-1.104.852-.636 0-1.56-.42-2.16-1.044l-.96 1.416c.672.624 1.74 1.248 2.94 1.248.888 0 1.656-.216 2.244-.684.6-.468.972-1.188.972-1.98zm7.619-5.76h-6.216v1.536h2.136V29h1.944v-6.744h2.136V20.72zm5.262-.012h-2.016L103.097 29h2.016l.588-1.668h2.952l.588 1.668h2.112l-3.12-8.292zm-2.088 5.112l1.032-2.976 1.032 2.976h-2.064zm11.565-.24c.612-.192 1.62-.804 1.62-2.376 0-.828-.36-1.488-.912-1.896-.54-.396-1.26-.588-2.184-.588h-2.976V29h1.944v-3.168h.612l1.74 3.168h2.256l-2.1-3.42zm-.336-2.304c0 .432-.168.66-.42.84-.24.18-.552.228-.996.228h-.768V22.22h.768c.444 0 .756.036.996.216.252.18.42.42.42.84zm9.787-2.556h-6.216v1.536h2.136V29h1.944v-6.744h2.136V20.72z" fill="#57586E"/><path fill-rule="evenodd" clip-rule="evenodd" d="M30.117 43.055a16.753 16.753 0 0 0 2.283-1.727c5.837-5.324 7.212-14.815 2.464-21.587-2.101-3.043-5.24-5.321-8.82-6.5l.882-2.996c5.422 1.78 10.092 5.704 12.427 10.897 3.71 8.21 1.063 18.782-7.03 24.287-5.579 3.797-13.18 4.66-19.562 2.135C6.223 44.974 1.294 38.941.231 32.15c-1.09-6.813 1.737-14.11 7.419-18.552 2.49-1.944 5.448-3.289 8.561-3.945L14.24 13.56C8.92 15.662 4.588 20.307 3.498 26.146 2.487 31.59 4.485 37.445 8.61 41.26c.7.659 1.479 1.247 2.283 1.763 2.127-.654 5.604-1.836 9.573-1.836 4.021 0 7.55 1.194 9.651 1.868zm2.983-9.48v2.776a1.539 1.539 0 0 0-.026.246c-.078.433-.466.963-.466.963-.26.29-.416.373-.597.46-.312.149-.83.21-.83.21-7.057.842-14.243.875-21.274.012 0 0-1.063-.11-1.556-.714 0 0-.442-.639-.468-1.127v-2.827H6.38v-5.987h1.504v-3.5c0-.046.053-.737.468-1.213 0 0 .674-.674 1.478-.701 3.632-.046 7.316-.357 11.026-.355 3.424.008 6.875.12 10.3.355.44.005.882.166 1.219.44l.285.294c.285.372.415.99.415.996a.296.296 0 0 1 .026.148v3.536h1.816v5.988H33.1zm-12.92-9.62c-3.294.013-6.615.126-9.91.33l-.181.013v11.814c6.849.845 13.853.825 20.702.01l.104-.01V24.295c-.181-.01-.337-.023-.519-.033a156.833 156.833 0 0 0-10.195-.306zm-5.058 6.41h-1.22v-3.107h3.217v1.42l-.052-.002c-1.011 0-1.841.742-1.945 1.69zm9.547 0h-.882v-3.107h3.19v1.453a1.772 1.772 0 0 0-.362-.035c-1.012 0-1.842.742-1.946 1.69zm-.805-12.301a26.398 26.398 0 0 0-6.486 0v3c2.128-.101 4.281-.114 6.486 0v-3zm-5.863-1.006l2.543-4.685c-1.816.03-3.088.203-4.489.576L22.36 0l-1.582 9.224c1.582-.126 3.32.093 4.825.553l-2.335 7.28a29.24 29.24 0 0 0-5.267 0z" fill="#4965F6"/></svg>