<?xml version="1.0" standalone="no"?>
<!DOCTYPE svg PUBLIC "-//W3C//DTD SVG 20010904//EN"
 "http://www.w3.org/TR/2001/REC-SVG-20010904/DTD/svg10.dtd">
<svg version="1.0" xmlns="http://www.w3.org/2000/svg"
 width="700.000000pt" height="700.000000pt" viewBox="0 0 700.000000 700.000000"
 preserveAspectRatio="xMidYMid meet">
<metadata>
Created by potrace 1.11, written by Peter Selinger 2001-2013
</metadata>
<g transform="translate(0.000000,700.000000) scale(0.100000,-0.100000)"
fill="#000000" stroke="none">
<path d="M4542 6995 c-1 -5 -15 -24 -30 -41 -65 -75 -118 -139 -132 -158 -8
-12 -28 -37 -46 -56 -17 -19 -82 -96 -143 -170 -62 -74 -121 -145 -132 -158
-11 -13 -52 -63 -91 -110 -39 -48 -78 -95 -87 -104 -9 -9 -29 -34 -46 -54 -16
-21 -59 -72 -93 -114 -68 -81 -74 -87 -142 -170 -25 -30 -55 -66 -66 -80 -25
-29 -140 -166 -187 -224 -18 -21 -37 -43 -42 -50 -6 -6 -30 -36 -55 -66 -25
-30 -49 -60 -55 -66 -5 -6 -26 -30 -45 -54 -19 -24 -40 -48 -45 -54 -6 -6 -42
-49 -80 -96 -84 -101 -107 -129 -120 -144 -6 -6 -42 -49 -80 -96 -39 -47 -80
-96 -91 -110 -12 -14 -52 -61 -88 -105 -79 -96 -81 -98 -126 -150 -19 -23 -51
-61 -70 -85 -19 -25 -51 -63 -70 -85 -20 -22 -67 -78 -105 -125 -38 -47 -72
-87 -75 -90 -3 -3 -21 -25 -41 -50 -20 -25 -45 -55 -55 -66 -64 -74 -111 -130
-123 -148 -8 -12 -18 -23 -21 -26 -3 -3 -87 -102 -185 -220 -98 -118 -200
-240 -225 -270 -26 -30 -91 -109 -146 -174 -54 -66 -156 -189 -227 -273 l-127
-153 700 0 700 0 0 -1397 0 -1398 28 30 c15 17 45 53 67 80 22 28 45 55 51 60
6 6 38 44 71 85 34 41 69 84 79 95 11 11 31 36 46 55 15 19 38 48 52 63 13 16
40 47 58 69 18 23 38 46 43 52 10 11 117 140 204 246 25 30 48 57 51 60 3 3
25 30 50 60 25 30 49 60 55 66 5 6 26 30 45 54 19 24 62 76 95 115 33 39 78
93 100 119 37 46 169 203 255 306 84 100 148 177 203 244 32 39 68 82 80 96
12 14 40 48 62 75 22 28 44 55 50 60 7 6 43 48 81 95 97 119 98 120 140 170
22 25 57 68 79 94 22 27 45 54 50 60 12 13 114 137 240 290 50 60 97 116 106
125 12 13 137 163 270 326 16 19 79 94 123 145 11 14 39 48 61 75 21 28 42 52
46 55 4 3 31 35 61 71 29 36 88 108 132 160 43 52 95 114 115 138 20 24 41 49
46 55 6 6 54 64 108 129 l98 117 -701 0 -700 0 -3 1403 c-1 771 -3 1398 -5
1392z"/>
</g>
</svg>
