<svg width="158" height="47" fill="none" xmlns="http://www.w3.org/2000/svg"><path fill-rule="evenodd" clip-rule="evenodd" d="M51.962 15.742H47.87v18.336c0 1.353-.28 2.164-1.27 2.164-.56 0-1.042-.108-1.373-.243l-.152 3.218c.228.135 1.397.406 2.617.406 1.424 0 2.517-.568 3.177-1.38.712-.865 1.093-2.244 1.093-4.219V15.742zm14.462 5.328h-4.067v7.085c0 1.758-.66 2.976-2.11 2.976-1.448 0-1.855-1.055-1.855-2.597V21.07h-4.066v8.06c0 1.92.305 3.082.915 4.002.635.892 1.779 1.569 3.583 1.569 1.805 0 3.127-1.001 3.66-1.813l.026 1.515h3.914V21.07zm17.333-.244c3.202 0 4.346 2.326 4.346 5.544v8.033H84.01v-7.248c0-1.434-.254-2.786-1.652-2.786-1.423 0-2.033 1.352-2.033 3.192v6.842h-4.067v-7.248c0-1.65-.355-2.786-1.677-2.786-1.423 0-2.033 1.352-2.033 3.192v6.842h-4.067V21.07h4.067l-.026 1.92.051-.027c.636-1.11 1.855-2.137 3.457-2.137 1.728 0 3.1.622 3.736 2.434.89-1.623 2.135-2.434 3.99-2.434zm20.307 6.924c0-3.922-2.288-6.924-5.897-6.924-1.906 0-3.253.784-4.168 1.947h-.05l.025-1.703H90.11v18.228h4.066v-6.572c.788 1.244 2.11 1.974 3.965 1.974 3.634 0 5.922-3.029 5.922-6.95zm-4.143-.054c0 2.055-1.195 3.462-2.948 3.462-1.728 0-2.923-1.407-2.923-3.462 0-2.056 1.195-3.462 2.923-3.462 1.753 0 2.948 1.406 2.948 3.462zm14.004-.109c.407.433 1.017 1.299 1.017 2.705 0 1.38-.56 2.461-1.474 3.245-.915.758-2.161 1.163-3.838 1.163-1.881 0-3.863-.622-5.287-2.055l1.525-2.57c1.017.92 2.694 1.623 3.711 1.623s1.728-.27 1.728-1.136c0-.75-1.373-1.174-2.037-1.38a7.078 7.078 0 0 1-.25-.08c-.483-.135-1.195-.352-1.779-.622-.585-.27-2.135-1.109-2.135-3.489 0-2.596 2.135-4.192 4.752-4.192 2.618 0 4.092 1.028 4.804 1.65l-1.322 2.542c-.711-.595-2.135-1.298-3.151-1.298-.966 0-1.5.27-1.5.974 0 .703.966 1.027 1.83 1.298.864.27 1.246.405 1.779.622.559.216 1.195.568 1.627 1zm10.395-6.49h-2.77v-3.625h-4.092v3.624h-1.779v3.273h1.779v5.166c0 2.028.254 3.137.889 3.921.636.785 1.602 1.244 3.05 1.244 1.344 0 2.392-.292 2.798-.405l.099-.027-.203-3.38s-.584.242-1.22.242c-.533 0-.788-.108-.966-.324-.203-.243-.355-.514-.355-1.65V24.37h2.77v-3.273zm11.361 1.27c.965.974 1.499 2.273 1.499 4.517v7.52h-3.888l-.077-1.407-.038.04c-.543.58-1.559 1.663-3.545 1.663-2.211 0-4.55-1.27-4.55-4.246 0-2.975 2.567-3.975 4.88-4.084l3.152-.135v-.297c0-1.407-.941-2.137-2.567-2.137-1.601 0-3.203.757-3.838 1.19l-1.068-2.813c1.068-.568 3.025-1.352 5.363-1.352 2.338 0 3.685.568 4.677 1.542zm-4.626 9.575c1.093 0 1.83-.757 2.084-1.217v-2.19l-2.008.134c-1.245.054-1.982.622-1.982 1.623 0 1.028.788 1.65 1.906 1.65zm17.104-10.872s-.432-.244-1.27-.244c-1.347 0-2.389.676-3.101 2.137h-.051l.026-1.893h-4.067v13.333h4.067V28.48c0-1.488.33-2.353.635-2.786.305-.432.966-.973 1.881-.973.711 0 1.245.189 1.474.324h.178l.228-3.976zm6.583.026h2.77v3.273h-2.77v4.787c0 1.136.153 1.407.356 1.65.178.216.432.325.966.325.635 0 1.22-.244 1.22-.244l.203 3.38-.1.028c-.406.113-1.454.405-2.797.405-1.449 0-2.415-.46-3.05-1.244-.636-.784-.89-1.893-.89-3.921v-5.166h-1.779v-3.273h1.779v-3.624h4.092v3.624zM26.682 38.32c.617-.405 1.194-.87 1.752-1.392 4.483-4.289 5.539-11.934 1.893-17.39-1.614-2.451-4.025-4.287-6.774-5.237l.677-2.413c4.164 1.435 7.75 4.595 9.544 8.778 2.849 6.615.817 15.132-5.4 19.566-4.283 3.06-10.12 3.754-15.022 1.72-5.02-2.086-8.806-6.947-9.623-12.418-.837-5.488 1.335-11.367 5.698-14.945a15.78 15.78 0 0 1 6.575-3.179l-1.514 3.148c-4.085 1.694-7.412 5.436-8.249 10.14-.777 4.386.758 9.102 3.926 12.175.537.531 1.135 1.005 1.753 1.42 1.633-.526 4.303-1.478 7.351-1.478 3.089 0 5.798.962 7.412 1.505zm2.29-7.638v2.237c-.02.115-.02.196-.02.198-.06.349-.358.776-.358.776-.2.233-.32.3-.459.371-.239.12-.637.168-.637.168-5.42.679-10.938.705-16.337.01 0 0-.817-.089-1.196-.575 0 0-.339-.515-.359-.908v-2.277H8.451v-4.823h1.155v-2.82c0-.037.04-.594.36-.977 0 0 .517-.543 1.135-.565 2.789-.036 5.618-.288 8.467-.286 2.63.006 5.28.098 7.91.286.339.004.677.134.936.355l.22.237c.218.3.318.798.318.802.02.038.02.079.02.12v2.848h1.395v4.823h-1.395zm-9.922-7.749c-2.53.01-5.08.102-7.61.266l-.14.01v9.517c5.26.681 10.64.665 15.899.008l.08-.008v-9.52c-.14-.007-.26-.017-.399-.025-2.61-.173-5.22-.254-7.83-.248zm-3.885 5.164h-.936v-2.504h2.47v1.145l-.04-.002c-.777 0-1.414.598-1.494 1.361zm7.332 0h-.677v-2.504h2.45v1.171a1.3 1.3 0 0 0-.279-.028 1.51 1.51 0 0 0-1.494 1.361zm-.618-9.91a19.339 19.339 0 0 0-4.98 0v2.417a48.05 48.05 0 0 1 4.98 0v-2.417zm-4.502-.81l1.952-3.775c-1.394.025-2.37.164-3.447.464l4.842-10.431-1.215 7.43c1.215-.1 2.55.076 3.705.447l-1.793 5.864a21.404 21.404 0 0 0-4.044 0z"/></svg>